<svg width="60" height="60" viewBox="0 0 50 50" fill="none" xmlns="http://www.w3.org/2000/svg">
<path d="M24.0431 0.0187692C24.0205 0.0412975 23.6378 0.0788446 23.1874 0.108882C20.6055 0.251561 17.8509 0.912391 15.224 2.00877C13.31 2.81979 11.8389 3.66835 9.78237 5.16273C9.6848 5.23782 9.17442 5.65835 8.65653 6.09389C6.24722 8.13646 4.15315 10.8023 2.67454 13.7085C1.92398 15.1878 0.925734 17.7711 1.03832 17.9588C1.06834 17.9963 1.05333 18.0264 1.0083 18.0264C0.858183 18.0264 0.317778 20.5946 0.122632 22.2317C-0.0274804 23.5233 -0.0424916 26.3618 0.0926096 27.5633C0.467891 30.8675 1.35355 33.7962 2.85468 36.6497C3.34255 37.5884 4.36331 39.248 4.72358 39.6836C4.82866 39.8112 5.17392 40.2543 5.49666 40.6673C6.23972 41.6135 7.74084 43.1829 8.53644 43.8438C8.87419 44.1141 9.22696 44.422 9.33203 44.5121C9.91747 45.0603 11.8839 46.3519 13.1824 47.0503C15.3741 48.2368 18.3163 49.2581 20.5154 49.6035C20.658 49.626 21.0858 49.6936 21.4611 49.7462C22.662 49.9339 24.5384 50.0391 25.8369 49.9865C30.6255 49.7988 34.9112 48.4245 38.8592 45.8188C42.3042 43.5509 45.1939 40.3594 47.1078 36.7248C48.9617 33.1954 49.8699 29.6885 49.99 25.6484C50.1176 21.1127 49.0218 16.6446 46.8001 12.7322C46.3873 12.0038 45.1339 10.1039 44.8937 9.8411C44.7961 9.73597 44.6685 9.57076 44.601 9.46563C44.3233 9.03008 42.8447 7.4531 41.8539 6.53695C41.4336 6.14646 40.3828 5.27537 40.2927 5.24533C40.2552 5.23031 40.1426 5.14771 40.0451 5.05759C39.9475 4.96748 39.6773 4.76473 39.4446 4.60703C39.2119 4.44933 39.0018 4.29914 38.9793 4.27661C38.9567 4.25409 38.604 4.0288 38.1912 3.76597C36.9002 2.96246 34.0406 1.58824 33.8679 1.70088C33.8304 1.72341 33.8004 1.70839 33.8004 1.67084C33.8004 1.60326 32.029 1.0025 31.2034 0.79975C30.2952 0.566957 28.8617 0.311637 27.8709 0.198995C26.8352 0.0788446 24.1106 -0.0488156 24.0431 0.0187692ZM27.9085 2.28662C32.652 2.94745 36.9077 4.90741 40.3228 7.99378C40.8857 8.49691 42.2292 9.86363 42.4469 10.1565C42.5594 10.3067 42.6945 10.4719 42.7471 10.532C42.9647 10.7572 43.7829 11.8762 44.1731 12.4769C46.1321 15.4807 47.2805 18.6121 47.7758 22.3067C47.9034 23.283 47.9034 27.0377 47.7758 27.7886C47.7233 28.0965 47.6257 28.6747 47.5657 29.0652C47.1754 31.4532 46.1396 34.2768 44.8487 36.4545C44.3833 37.2355 43.5051 38.5947 43.4076 38.6773C43.3851 38.6998 43.25 38.865 43.1073 39.0528C42.9647 39.2405 42.8296 39.4057 42.8071 39.4282C42.7846 39.4508 42.6195 39.6535 42.4318 39.8788C40.9457 41.6961 37.9885 44.0916 36.0145 45.0828C35.8494 45.1654 35.5942 45.3081 35.4516 45.3982C35.309 45.4808 34.7761 45.7362 34.2657 45.9539C31.3085 47.223 28.7791 47.7862 25.6192 47.8838C22.9773 47.9665 20.3653 47.606 17.971 46.825C17.6708 46.7199 17.3856 46.6598 17.3405 46.6899C17.2955 46.7124 17.288 46.6974 17.318 46.6523C17.3405 46.6072 17.273 46.5547 17.1379 46.5246C15.9895 46.2693 12.9347 44.6172 11.2084 43.3181C9.86493 42.3119 7.98853 40.472 7.04282 39.2405C6.7576 38.865 6.4799 38.5196 6.42736 38.467C6.37482 38.4145 6.32978 38.3394 6.32978 38.3168C6.32978 38.2868 6.25473 38.1742 6.16466 38.069C6.06709 37.9639 5.93949 37.7987 5.87945 37.7011C5.8194 37.5959 5.5567 37.1604 5.29401 36.7248C4.04807 34.6522 3.13989 32.3544 2.62951 29.9814C2.27675 28.3744 2.2167 27.9463 2.11162 26.3393C1.954 23.9138 2.20169 21.5258 2.8847 18.9651C3.47765 16.7498 4.58097 14.2867 5.82691 12.4319C6.16466 11.9287 6.86268 10.9525 6.93023 10.8924C6.95275 10.8699 7.23046 10.547 7.5457 10.179C8.20619 9.39053 9.93248 7.68589 10.5329 7.22782C11.2985 6.64208 12.4469 5.82356 12.8222 5.59827C15.3365 4.07386 17.8284 3.09012 20.4929 2.56446C21.1384 2.4368 22.4218 2.25658 23.4051 2.15145C24.0431 2.08386 27.1204 2.18148 27.9085 2.28662Z" fill="#F67A45"/>
<path d="M27.4505 14.1961C27.2103 14.2937 23.9378 19.0097 24.0579 19.0923C24.1105 19.1223 24.5158 19.1523 24.9511 19.1523C25.6041 19.1523 25.7842 19.1298 25.9043 19.0172C25.9944 18.9496 26.3847 18.4164 26.79 17.8382C27.7357 16.464 27.7507 16.4565 27.8182 16.449C27.8483 16.449 27.8708 16.6968 27.8708 17.0046C27.8708 17.5829 27.8332 17.6505 27.503 17.6505C27.4129 17.6505 27.2028 17.8983 26.9025 18.3488C26.6549 18.7318 26.4447 19.0622 26.4447 19.0772C26.4447 19.1073 28.2085 19.1073 29.3194 19.0772C29.3494 19.0772 29.3644 17.9734 29.3569 16.6142L29.3344 14.1586L28.4712 14.1436C27.9984 14.136 27.5405 14.1586 27.4505 14.1961Z" fill="white"/>
<path d="M12.1925 14.3013C12.14 14.3689 12.1099 14.6167 12.125 14.9621L12.1475 15.5103L13.0331 15.5328L13.9113 15.5554V17.275V18.9947L14.6694 19.0172C15.0822 19.0322 15.4424 19.0247 15.4575 19.0097C15.4725 18.9947 15.4875 18.2062 15.4875 17.26V15.5478H16.3506H17.2138V14.872V14.1962H14.7444C12.7179 14.1962 12.2601 14.2112 12.1925 14.3013Z" fill="white"/>
<path d="M30.3335 14.2407C30.296 14.2707 30.2734 15.3521 30.2734 16.6512V19.0016H31.0615H31.8496L31.8646 17.71L31.8871 16.4109L32.9905 17.7025C33.5984 18.4084 34.1163 19.0016 34.1538 19.0242C34.1839 19.0467 34.4766 18.7538 34.8068 18.3709C35.1296 17.9954 35.6625 17.4096 35.9852 17.0642L36.5782 16.4409V17.7175V19.0016H37.3287H38.0793V16.6136V14.2332L37.3437 14.2181C36.398 14.1956 36.2104 14.2632 35.7751 14.7813C34.8369 15.9078 34.2214 16.5986 34.1689 16.5986C34.1388 16.5986 33.726 16.133 33.2532 15.5623C32.7803 14.9991 32.3225 14.4735 32.2324 14.3909C32.1048 14.2782 31.9247 14.2407 31.2342 14.2181C30.7688 14.1956 30.3635 14.2031 30.3335 14.2407Z" fill="white"/>
<path d="M17.858 14.3919C17.8354 14.4594 17.8129 14.7073 17.8129 14.9476C17.8129 15.691 17.5352 15.6234 20.6726 15.6234H23.4421V14.9476V14.2717H20.6726C18.2182 14.2717 17.8955 14.2867 17.858 14.3919Z" fill="white"/>
<path d="M17.8575 16.1194C17.7975 16.2696 17.7975 18.8078 17.8575 18.958C17.8951 19.0631 18.2178 19.0781 20.6721 19.0781H23.4417V18.4023V17.7264H21.4527H19.4637V17.5387V17.351H21.0399H22.6161V16.6751V15.9993H20.2593C18.1803 15.9993 17.8951 16.0143 17.8575 16.1194Z" fill="white"/>
<path d="M8.33277 19.8069C8.27273 19.882 8.18266 20.0923 8.13012 20.28C8.07758 20.4678 7.53718 22.3902 6.92922 24.5604C6.32127 26.7306 5.78837 28.623 5.74333 28.7657L5.67578 29.0285L10.7796 29.006C14.5925 28.991 15.9435 29.006 16.1011 29.0736C16.4464 29.2163 16.6115 29.4866 16.6115 29.8996C16.6115 30.1249 16.6415 30.2676 16.694 30.2676C16.8366 30.2676 17.4371 29.7419 17.6322 29.4491C17.7974 29.1862 18.0375 28.3752 20.2067 20.7306L20.4994 19.7168L18.8406 19.6943C17.9325 19.6868 17.1744 19.6868 17.1594 19.7093C17.1444 19.7243 16.649 21.4215 16.0636 23.4791L14.9978 27.2263L12.2807 27.2488C10.7796 27.2563 9.55619 27.2413 9.55619 27.2112C9.55619 27.1662 10.7871 22.7807 11.6277 19.8069C11.6653 19.6868 11.5527 19.6793 10.0591 19.6793C8.62549 19.6793 8.43785 19.6943 8.33277 19.8069Z" fill="white"/>
<path d="M21.5886 19.7682C21.5135 19.8658 18.834 29.2601 18.7439 29.7407L18.6914 30.0035L19.2243 29.4929L19.7497 28.9897H20.9431C21.5961 28.9897 22.1665 28.9597 22.219 28.9297C22.3466 28.8471 22.3842 28.7344 22.9921 26.5266C23.2924 25.4453 23.5626 24.5592 23.5926 24.5592C23.6226 24.5592 24.0429 25.4978 24.5308 26.6393C25.0111 27.7882 25.4615 28.787 25.529 28.8546C25.6341 28.9747 25.8293 28.9897 27.5781 28.9897H29.507L29.2969 29.7782L29.0792 30.5742L29.6496 30.5517L30.22 30.5292L30.3176 30.1912C30.6854 28.8996 30.6404 28.9897 30.873 28.9897C30.9931 28.9897 31.1057 28.9597 31.1282 28.9297C31.1733 28.8546 33.6051 20.2863 33.6876 19.9183L33.7402 19.678H32.1265C30.9181 19.678 30.4978 19.7006 30.4377 19.7757C30.3927 19.8282 29.9799 21.1874 29.522 22.7945C29.0567 24.409 28.6739 25.7306 28.6589 25.7457C28.6514 25.7607 28.0734 24.439 27.3829 22.817C26.6924 21.1949 26.092 19.8207 26.0544 19.7682C25.9944 19.7006 25.454 19.678 23.8177 19.678C22.1815 19.678 21.6411 19.7006 21.5886 19.7682Z" fill="white"/>
<path d="M34.7915 19.8814C34.7465 20.0015 34.6189 20.4145 34.5138 20.805C34.4012 21.1955 33.8458 23.1705 33.2679 25.1905C32.6975 27.2106 32.2246 28.8927 32.2246 28.9227C32.2246 28.9603 33.2829 28.9903 34.5739 28.9903C35.8573 28.9903 36.9532 29.0203 36.9982 29.0504C37.0432 29.0804 37.1933 29.3658 37.3284 29.6887C37.4635 30.0116 37.5911 30.2594 37.6061 30.2369C37.6287 30.2143 37.7187 29.9365 37.8088 29.6136L37.9739 29.0278L41.7192 29.0053C43.7758 28.9978 45.472 28.9753 45.487 28.9678C45.5096 28.9377 45.9599 27.3683 45.9599 27.3007C45.9599 27.2781 43.7307 27.2631 40.9987 27.2631C36.3152 27.2631 36.045 27.2556 36.0825 27.128C36.2326 26.6624 38.1541 19.8138 38.1541 19.7537C38.1541 19.7086 37.5236 19.6786 36.5103 19.6786H34.8666L34.7915 19.8814Z" fill="white"/>
<path d="M11.1116 29.59C10.9539 29.6201 10.7513 29.7177 10.6612 29.8078C10.5036 29.9655 10.4961 30.0181 10.4961 31.8504V33.7353L10.7063 33.9155L10.9164 34.0957H13.1606C14.6692 34.0957 15.4648 34.0657 15.5924 34.0131C15.9152 33.8629 15.9452 33.6451 15.9227 31.7453C15.9001 30.0556 15.8926 29.958 15.7425 29.8153C15.6525 29.7252 15.4498 29.6276 15.2922 29.59C14.9469 29.5074 11.5244 29.5074 11.1116 29.59ZM14.5491 31.8429V32.7065L13.1831 32.729L11.8096 32.744V31.963C11.8096 31.535 11.8321 31.122 11.8546 31.0619C11.8996 30.9568 12.0648 30.9417 13.2281 30.9568L14.5491 30.9793V31.8429Z" fill="white"/>
<path d="M22.46 29.6062C22.0922 29.6813 21.9421 29.9066 21.9346 30.4097C21.897 31.6187 21.9646 33.6838 22.0322 33.7965C22.0772 33.864 22.1748 33.9617 22.2423 34.0067C22.3699 34.0818 23.4582 34.1119 25.86 34.1043C27.0384 34.0968 26.9558 34.1569 26.8958 33.3159L26.8583 32.7827L25.0944 32.7451L23.3306 32.7076L23.2931 31.9266C23.2706 31.3934 23.2856 31.1081 23.3456 31.0255C23.4207 30.9204 23.6384 30.9053 25.0719 30.9279C26.0402 30.9429 26.7532 30.9204 26.8132 30.8753C26.8958 30.8227 26.9183 30.6575 26.9033 30.222C26.8958 29.8991 26.8658 29.6062 26.8433 29.5687C26.7982 29.4936 22.8503 29.5236 22.46 29.6062Z" fill="white"/>
<path d="M27.2862 29.5678L27.1211 29.5979L27.1361 31.8282L27.1586 34.0585L27.8191 34.081L28.4721 34.1035V33.3976C28.4721 32.9546 28.5021 32.6692 28.5622 32.6091C28.6673 32.504 30.5512 32.4815 30.7013 32.5791C30.7613 32.6166 30.7988 32.8945 30.8139 33.3451L30.8364 34.0585L31.4969 34.081L32.1499 34.1035V31.8582V29.6129L31.7145 29.5678C31.4744 29.5378 31.1816 29.5453 31.054 29.5828L30.8364 29.6354L30.7988 30.3863L30.7613 31.1298L29.718 31.1523C29.02 31.1673 28.6447 31.1448 28.5772 31.0847C28.5021 31.0247 28.4721 30.8069 28.4721 30.3338C28.4721 29.9733 28.4496 29.6579 28.4196 29.6429C28.322 29.5828 27.4739 29.5303 27.2862 29.5678Z" fill="white"/>
<path d="M32.7877 29.5917C32.6751 29.6293 32.6601 29.8546 32.6676 31.837C32.6676 33.0461 32.6751 34.0523 32.6902 34.0598C32.7352 34.1049 32.9378 34.1124 33.4482 34.1049L33.9511 34.0974V31.8445V29.5917L33.786 29.5842C33.6884 29.5842 33.4557 29.5767 33.2606 29.5692C33.0654 29.5542 32.8553 29.5692 32.7877 29.5917Z" fill="white"/>
<path d="M38.1618 29.5766C38.1093 29.5916 38.0793 30.0121 38.0793 30.8156C38.0793 31.7693 38.0567 32.0021 37.9892 31.9345C37.9367 31.882 37.5389 31.3413 37.1035 30.733L36.3154 29.6291H35.4148H34.5141L34.4916 31.8594L34.4766 34.0972H35.1521H35.8276L35.8426 32.8357L35.8651 31.5816L36.7282 32.8056C37.2461 33.5415 37.6514 34.0372 37.7415 34.0597C37.8241 34.0747 38.2069 34.1047 38.5896 34.1273C39.1376 34.1498 39.3027 34.1348 39.3927 34.0522C39.4903 33.9546 39.5053 33.6166 39.4828 31.8444C39.4753 30.5678 39.4378 29.7192 39.3927 29.6817C39.3177 29.6066 38.3194 29.524 38.1618 29.5766Z" fill="white"/>
<path d="M40.5626 29.59C40.4275 29.6201 40.2399 29.7252 40.1498 29.8078C39.9997 29.9655 39.9922 30.0331 39.9922 31.8504V33.7353L40.2023 33.9155L40.4125 34.0957H42.7017H44.9834V32.9693V31.8354L44.3304 31.8579L43.6699 31.8804L43.6324 32.2934L43.5949 32.7065L42.5141 32.729C41.696 32.744 41.4183 32.7215 41.3657 32.6539C41.2982 32.5413 41.2832 31.2346 41.3507 31.0619C41.3882 30.9568 41.6134 30.9417 43.047 30.9417C44.0377 30.9417 44.7508 30.9117 44.8408 30.8667C44.9609 30.7991 44.9834 30.7014 44.9834 30.2208C44.9834 29.6877 44.9759 29.6576 44.7883 29.59C44.5631 29.4999 40.9304 29.4999 40.5626 29.59Z" fill="white"/>
<path d="M5.46745 29.7703C5.30233 29.9355 5.27981 30.0256 5.27231 30.5062C5.27231 30.8066 5.24979 31.4449 5.23478 31.918C5.17473 33.1195 5.24979 33.6977 5.46745 33.9155L5.64759 34.0957H7.9368H10.2185L10.2485 33.4874C10.2635 33.157 10.241 32.8566 10.2035 32.8116C10.1585 32.774 9.37788 32.744 8.37963 32.744H6.63082V31.8504V30.9643L7.32134 30.9117C7.69662 30.8892 8.50723 30.8666 9.11519 30.8666C9.77568 30.8666 10.2335 30.8366 10.2485 30.7916C10.2635 30.754 10.256 30.4762 10.2335 30.1758L10.196 29.6276L7.92179 29.6051L5.64759 29.59L5.46745 29.7703Z" fill="white"/>
<path d="M19.4945 29.7563C19.3294 29.9365 18.8566 30.6049 17.363 32.7451L16.4473 34.0592L16.9276 34.0968C17.1828 34.1193 17.5956 34.1193 17.8283 34.0968L18.2561 34.0592L18.729 33.4059C18.9917 33.0454 19.367 32.5123 19.5696 32.2194C19.7723 31.934 19.9674 31.6937 20.0049 31.6937C20.0425 31.6937 20.065 31.919 20.05 32.1969C20.0274 32.685 20.0199 32.7 19.7948 32.7601C19.6146 32.8051 19.472 32.9553 19.1418 33.451C18.9091 33.8039 18.744 34.0968 18.774 34.1118C18.804 34.1268 19.412 34.1268 20.125 34.1118L21.416 34.0893V31.8439V29.5911H20.5303C19.7047 29.5911 19.6297 29.6061 19.4945 29.7563Z" fill="white"/>
</svg>
